<?xml version="1.0" encoding="UTF-8" standalone="no"?>
<!-- Created with Inkscape (http://www.inkscape.org/) -->

<svg
   width="1024"
   height="768"
   viewBox="0 0 1024 768"
   version="1.1"
   id="svg1"
   xml:space="preserve"
   inkscape:version="1.4 (86a8ad7, 2024-10-11)"
   sodipodi:docname="polvo_midi_logo.svg"
   xmlns:inkscape="http://www.inkscape.org/namespaces/inkscape"
   xmlns:sodipodi="http://sodipodi.sourceforge.net/DTD/sodipodi-0.dtd"
   xmlns="http://www.w3.org/2000/svg"
   xmlns:svg="http://www.w3.org/2000/svg"><sodipodi:namedview
     id="namedview1"
     pagecolor="#ffffff"
     bordercolor="#000000"
     borderopacity="0.25"
     inkscape:showpageshadow="2"
     inkscape:pageopacity="0.0"
     inkscape:pagecheckerboard="0"
     inkscape:deskcolor="#d1d1d1"
     inkscape:document-units="px"
     inkscape:zoom="0.97753906"
     inkscape:cx="523.76424"
     inkscape:cy="336.55944"
     inkscape:window-width="1479"
     inkscape:window-height="1000"
     inkscape:window-x="1072"
     inkscape:window-y="0"
     inkscape:window-maximized="0"
     inkscape:current-layer="layer1" /><defs
     id="defs1" /><g
     inkscape:label="Layer 1"
     inkscape:groupmode="layer"
     id="layer1"><g
       id="g20"
       inkscape:export-filename="logo512.png"
       inkscape:export-xdpi="318.83093"
       inkscape:export-ydpi="318.83093"
       transform="matrix(1.6787554,0,0,1.6787554,-488.78186,-421.72416)"><circle
         style="fill:#f5f1e9;fill-opacity:1;stroke-width:4.73826;stroke-linecap:round;stroke-linejoin:round;paint-order:stroke markers fill"
         id="path18"
         cx="596.14514"
         cy="397.08884"
         r="77.081612" /><path
         id="path17"
         style="fill:#000000;stroke-width:0.560849"
         d="m 594.81412,337.89814 c -13.94506,0.44068 -26.34663,9.39604 -31.13919,23.54362 -0.80882,2.38762 -1.89784,4.3103 -1.87277,9.73671 0.0366,7.91591 1.49437,10.39622 5.59496,17.18297 3.01827,4.99538 3.49071,8.57366 1.68584,12.76919 -4.35452,10.12233 -20.49768,14.37551 -26.89777,7.0862 -2.96745,-3.37973 -2.27468,-5.94908 2.38361,-8.84434 2.26759,-1.40937 2.96902,-3.25017 2.06704,-5.42775 -2.2508,-5.43391 -10.78094,-3.49454 -14.07711,3.20079 -1.95234,3.96568 -1.87707,10.04828 0.17198,13.93141 3.2183,6.09895 9.11079,9.71857 16.60969,10.20374 8.53491,0.55219 17.91777,-2.7488 23.90731,-8.41275 1.71804,-1.62464 3.1241,-2.64653 3.1241,-2.26968 0,1.74346 -1.77716,8.83609 -3.08358,12.30692 -3.20901,8.52559 -9.29003,14.81212 -14.32794,14.81212 -1.8192,0 -4.46161,-2.96439 -4.46161,-5.00492 0,-3.73988 -4.7858,-5.40369 -7.56051,-2.62898 -4.54703,4.54702 0.0758,14.09318 7.92966,16.37636 6.66197,1.93669 12.16697,0.0962 18.47956,-6.1803 3.32043,-3.30147 4.51546,-5.0402 7.15083,-10.39981 l 3.16464,-6.43443 v 6.26683 c 0,3.44696 -0.26451,7.49874 -0.58715,9.00317 -0.77779,3.62672 -3.2261,6.51267 -6.56807,7.74345 -1.46313,0.53884 -3.22751,1.4861 -3.92156,2.10537 -1.67999,1.499 -1.70091,4.59815 -0.0427,6.36323 2.56344,2.72865 8.76651,1.24612 13.65975,-3.26431 5.73565,-5.28694 6.97421,-10.20165 6.98542,-27.71495 0.009,-13.85662 0.092,-14.27318 2.85574,-14.27318 2.89059,0 3.01929,0.6459 3.32237,16.76961 0,0 -0.0616,3.62998 0.11283,7.15741 0.23336,4.71898 0.60415,8.33422 1.92683,11.47551 1.32268,3.14129 5.16571,7.95644 8.91115,9.72832 4.02758,1.90533 7.66647,1.92164 9.54539,0.0427 2.81125,-2.81124 1.39421,-6.38146 -3.12848,-7.88366 -6.39651,-2.12458 -7.84483,-4.97831 -8.25282,-16.25807 -0.15594,-4.31854 -0.15772,-7.7257 -0.003,-7.57146 0.15451,0.15423 1.15978,2.32285 2.23353,4.8187 6.07298,14.11608 16.42091,21.4141 26.29311,18.54418 7.2079,-2.09539 11.89313,-9.72628 9.1861,-14.9611 -2.2936,-4.43533 -8.68659,-3.30526 -8.68659,1.53577 0,2.32978 -2.11176,4.64453 -4.23705,4.64453 -4.11094,0 -9.56478,-4.83506 -12.7396,-11.29366 -1.79291,-3.64736 -3.42605,-8.93139 -4.6533,-15.05969 l -0.39106,-1.9564 3.66305,3.42644 c 4.35443,4.07336 8.99736,6.52355 14.8154,7.81794 5.48391,1.22005 12.32936,0.87085 16.16277,-0.82485 9.31609,-4.12095 13.56208,-14.1944 9.45666,-22.43288 -2.47628,-4.96927 -7.66394,-7.78462 -11.4525,-6.21535 -2.04029,0.84511 -2.77248,2.07516 -2.77248,4.65001 0,2.05501 0.61414,2.7982 3.51078,4.24581 4.88813,2.44286 3.50752,8.45668 -2.51943,10.9749 -2.90507,1.21382 -8.75107,1.1128 -12.23901,-0.21251 -4.18662,-1.59079 -8.43389,-5.0344 -10.15116,-8.22981 -2.88568,-5.36955 -2.651,-7.99064 1.29806,-14.53827 3.38804,-5.61744 4.39698,-9.33107 4.39698,-16.18357 0,-10.07709 -2.94184,-17.33372 -9.80611,-24.18773 -4.56649,-4.55967 -9.06218,-7.13268 -15.20647,-8.70412 -3.30804,-0.84606 -6.60772,-1.19711 -9.82582,-1.09541 z m -12.08346,38.15857 c 2.29362,3.7e-4 4.15278,2.24696 4.1527,5.01807 8e-5,2.77111 -1.85908,5.0177 -4.1527,5.01807 -2.29404,3.6e-4 -4.15387,-2.24644 -4.15379,-5.01807 -8e-5,-2.77163 1.85975,-5.01842 4.15379,-5.01807 z m 26.96459,0 c 2.29404,-3.5e-4 4.15387,2.24644 4.15379,5.01807 8e-5,2.77163 -1.85975,5.01843 -4.15379,5.01807 -2.29362,-3.7e-4 -4.15277,-2.24696 -4.15269,-5.01807 -8e-5,-2.77111 1.85908,-5.01769 4.15269,-5.01807 z"
         sodipodi:nodetypes="sssssssssssssssssssccsssssssscsssssccsssssscccssssssssssssssscscsscscs" /></g><g
       id="g18"
       transform="matrix(1.6787554,0,0,1.6787554,-114.55948,-231.10073)"><path
         style="fill:#000000"
         d="m 463.56365,426.51193 c -5.91118,-1.46727 -11.13849,-4.51667 -14.70425,-8.57784 -4.89679,-5.57714 -6.39268,-9.86827 -6.40785,-18.38164 -0.0205,-11.52198 5.01518,-19.8423 15.05362,-24.87255 13.33361,-6.68146 30.75329,-1.00713 37.49868,12.21492 2.90526,5.6948 3.51576,15.06286 1.39727,21.44105 -4.31233,12.98319 -19.62084,21.4567 -32.83747,18.17606 z"
         id="path8" /><path
         style="fill:#000000"
         d="m 314.76797,426.24677 c -11.54012,-3.26192 -19.93879,-14.50618 -19.93879,-26.69432 0,-20.26809 21.93972,-33.6245 40.39827,-24.59357 9.89666,4.84198 15.01904,13.44622 14.93902,25.09357 -0.0544,7.92271 -1.74626,12.61832 -6.49514,18.02699 -6.5281,7.43511 -19.01286,10.96297 -28.90336,8.16733 z"
         id="path6" /><path
         style="fill:#000000"
         d="m 249.06258,399.30245 0.2666,-26.25 13.10023,0.0925 c 11.88133,0.0838 13.50181,0.31646 17.41628,2.5 11.02474,6.14972 11.49854,24.06414 0.803,30.3615 -2.39102,1.40779 -5.76452,2.07089 -12.06907,2.37231 l -8.75044,0.41833 v 8.37768 8.37768 h -5.5166 -5.51661 z"
         id="path10" /><path
         style="fill:#000000"
         d="m 406.81513,423.30245 c -1.82236,-4.22199 -17.98595,-49.16286 -17.98595,-50.0077 0,-0.46316 2.5875,-0.70715 5.75,-0.5422 l 5.75,0.2999 6.99342,20.19073 c 4.9978,14.42917 7.24267,19.74534 7.86689,18.62991 0.48041,-0.85844 3.67042,-9.94427 7.08891,-20.19072 l 6.21544,-18.62992 5.76864,-0.30292 c 3.58043,-0.18801 5.63551,0.0809 5.41767,0.70904 -0.19303,0.55657 -4.40097,12.49764 -9.35097,26.5357 l -9,25.52375 -6.77144,0.0172 c -6.07615,0.0154 -6.87116,-0.21381 -7.74261,-2.23278 z"
         id="path13" /><path
         style="fill:#000000"
         d="m 359.82918,399.05245 v -26.5 h 5.5 5.5 v 22 22 h 11.35714 11.35715 v 4.5 4.5 h -16.85715 -16.85714 z"
         id="path12" /><path
         style="fill:#f5f1e9;fill-opacity:1"
         d="m 275.7566,395.91759 c 2.44877,-3.11311 2.6015,-5.44164 0.60957,-9.29362 -1.82789,-3.53473 -3.22787,-4.07152 -10.61878,-4.07152 h -5.91821 v 8 8 h 6.92742 c 6.29273,0 7.11731,-0.24141 9,-2.63486 z"
         id="path11" /><path
         style="fill:#f5f1e9;fill-opacity:1"
         d="m 478.39527,414.06658 c 13.9855,-8.19604 9.3826,-29.75568 -6.68227,-31.29932 -6.11107,-0.58719 -9.90744,0.96205 -14.31652,5.84237 -4.11727,4.55733 -5.29348,9.54671 -3.60433,15.28928 3.22718,10.97142 14.95871,15.81968 24.60312,10.16767 z"
         id="path9" /><path
         style="fill:#f5f1e9;fill-opacity:1"
         d="m 329.62884,415.14173 c 11.63325,-6.0775 13.46543,-19.88127 3.76889,-28.39495 -6.41612,-5.63342 -15.05273,-5.46201 -21.57243,0.42814 -2.13651,1.93021 -4.41187,5.10725 -5.05637,7.06009 -2.45453,7.4373 1.47262,17.30168 8.20949,20.62097 4.12958,2.03466 11.04457,2.16953 14.65042,0.28575 z"
         id="path7" /></g><g
       id="g19"
       transform="matrix(1.2959115,0,0,1.2959115,30.790245,-60.250812)"><path
         style="fill:#000000"
         d="m 383.57918,493.98589 c -0.4125,-0.42174 -0.75,-12.39179 -0.75,-26.60013 v -25.83333 h 10.95078 c 13.1721,0 19.41302,1.20961 25.20083,4.88441 12.07689,7.66786 14.18352,28.07635 4.05844,39.31715 -5.92514,6.57805 -10.54849,8.12361 -25.71005,8.59473 -7.15,0.22217 -13.3375,0.0589 -13.75,-0.36283 z"
         id="path3" /><path
         style="fill:#000000"
         d="m 292.82918,468.00473 v -26.54771 l 6.23511,0.29771 6.23511,0.29772 7.01489,12.73579 c 3.85819,7.00468 7.23989,12.73861 7.51489,12.74207 0.275,0.003 3.78243,-5.84014 7.79428,-12.98578 l 7.29429,-12.99208 h 5.95571 5.95572 v 26.5 26.5 h -4.97693 -4.97692 l -0.27308,-17.45738 -0.27307,-17.45738 -6.58876,11.70738 c -5.96573,10.60034 -6.87751,11.73625 -9.64248,12.01272 -2.9472,0.29469 -3.29293,-0.12391 -9.91124,-12 l -6.85752,-12.30534 -0.27307,17.75 -0.27308,17.75 h -4.97692 -4.97693 z"
         id="path1" /><path
         style="fill:#000000"
         d="m 438.82918,468.05243 v -26.5 h 5.5 5.5 v 26.5 26.5 h -5.5 -5.5 z"
         id="path5" /><path
         style="fill:#f5f1e9;fill-opacity:1"
         d="m 411.48542,481.95976 c 7.28548,-5.4394 9.32711,-14.30668 5.15912,-22.40733 -3.04899,-5.92583 -7.20786,-7.99641 -16.06536,-7.99845 l -6.75,-0.002 v 15.83333 c 0,8.70834 0.3375,16.17545 0.75,16.59358 1.55796,1.57925 14.09135,0.082 16.90624,-2.01958 z"
         id="path4" /><path
         style="fill:#000000"
         d="m 359.82918,468.05243 v -26.5 h 5.5 5.5 v 26.5 26.5 h -5.5 -5.5 z"
         id="path2" /></g></g></svg>
